<?xml version="1.0" standalone="no"?>
<!DOCTYPE svg PUBLIC "-//W3C//DTD SVG 20010904//EN"
 "http://www.w3.org/TR/2001/REC-SVG-20010904/DTD/svg10.dtd">
<svg version="1.0" xmlns="http://www.w3.org/2000/svg"
 width="100.000000pt" height="100.000000pt" viewBox="0 0 100.000000 100.000000"
 preserveAspectRatio="xMidYMid meet">

<g transform="translate(0.000000,100.000000) scale(0.100000,-0.100000)"
fill="#000000" stroke="none">
<path d="M325 945 c-116 -25 -183 -68 -230 -149 -60 -103 -73 -389 -25 -540
39 -123 134 -192 298 -216 142 -20 320 -4 415 38 62 28 122 92 147 159 32 85
46 239 33 359 -24 219 -98 311 -282 350 -82 17 -276 17 -356 -1z m213 -151
c20 -14 22 -23 22 -125 l0 -109 103 0 c118 0 147 -12 147 -60 0 -52 -19 -60
-141 -60 l-109 0 0 -109 c0 -122 -8 -141 -60 -141 -48 0 -60 29 -60 147 l0
103 -109 0 c-102 0 -111 2 -125 22 -23 32 -20 54 10 77 23 18 41 21 125 21
l99 0 0 100 c0 94 2 103 25 125 28 29 42 31 73 9z"/>
</g>
</svg>
