<?xml version="1.0" standalone="no"?>
<!DOCTYPE svg PUBLIC "-//W3C//DTD SVG 20010904//EN"
 "http://www.w3.org/TR/2001/REC-SVG-20010904/DTD/svg10.dtd">
<svg version="1.0" xmlns="http://www.w3.org/2000/svg"
 width="100.000000pt" height="100.000000pt" viewBox="0 0 100.000000 100.000000"
 preserveAspectRatio="xMidYMid meet">

<g transform="translate(0.000000,100.000000) scale(0.100000,-0.100000)"
fill="#000000" stroke="none">
<path d="M405 791 c-167 -43 -266 -208 -220 -366 28 -98 85 -163 177 -203 114
-48 272 -2 345 101 45 64 58 105 57 182 -1 115 -63 214 -165 263 -49 24 -147
36 -194 23z m175 -147 c22 -20 40 -42 40 -48 0 -6 -20 -29 -45 -49 l-44 -38
-7 25 c-6 25 -9 25 -107 28 l-101 3 1 28 c1 15 1 32 2 37 1 6 41 10 100 10 90
0 99 2 104 20 7 27 11 26 57 -16z m-56 -206 c100 -3 101 -3 102 -28 3 -48 -2
-50 -107 -50 -80 0 -99 -3 -99 -14 0 -8 -4 -17 -9 -20 -10 -7 -91 61 -91 77 0
7 19 29 42 49 l43 37 9 -24 c9 -23 14 -24 110 -27z"/>
</g>
</svg>
